<svg id="Layer_1" data-name="Layer 1" xmlns="http://www.w3.org/2000/svg" viewBox="0 0 24 21"><defs><style>.cls-1{fill:#32383c;}</style></defs><path class="cls-1" d="M23,9H21.79l-1-7.28a2,2,0,0,0-2-1.72H5.37a2,2,0,0,0-2,1.69L2.24,9H1a1,1,0,0,0-1,1v6a1,1,0,0,0,1,1H2v3a1,1,0,0,0,1,1H6a1,1,0,0,0,1-1V17H17v3a1,1,0,0,0,1,1h3a1,1,0,0,0,1-1V17h1a1,1,0,0,0,1-1V10A1,1,0,0,0,23,9ZM5.5,19.5h-2v-2h2Zm15,0h-2v-2h2ZM4.88,1.92a.5.5,0,0,1,.49-.42h13.4a.5.5,0,0,1,.49.43l1,7.07H3.76ZM22.5,15.5H1.5v-5h21Z" transform="translate(0 0)"/><circle class="cls-1" cx="6" cy="13" r="1"/><circle class="cls-1" cx="17" cy="13" r="1"/></svg>